# xmcd CD database file
#
# Track frame offsets:
#	150
#	36837
#	82900
#	116085
#	169350
#	198717
#	237367
#	267762
#
# Disc length: 3775 seconds
#
# Revision: 1
# Processed by: cddbd v1.5.1PL0 Copyright (c) Steve Scherf et al.
# Submitted via: CDex 1.51
#
DISCID=6b0ebd08
DTITLE=Jerker Lindström - Project
DYEAR=1999
DGENRE=Jazz
TTITLE0=Cecilia
TTITLE1=Dance of tides
TTITLE2=Vintervisa
TTITLE3=Folk blues
TTITLE4=The lost wanderer
TTITLE5=Kvintolium
TTITLE6=Fishing with Fischer
TTITLE7=Visa vid midsommartid
EXTD=YEAR: 1999
EXTT0=
EXTT1=
EXTT2=
EXTT3=
EXTT4=
EXTT5=
EXTT6=
EXTT7=
PLAYORDER=
